# File created by Blade
# Date/Time:  Wed Apr 08 17:16:55 2015
#---------------------------------------------------------
:version 1.10
:name HOM
:units
  mass 1.0
  length 1.000000
  angle deg
:documentation
     Acclaim Skeleton File
:root
   axis xyz
   order TX TY TZ RX RY RZ
   position 0.000000 0.000000 0.000000
   orientation 0 0 0
:bonedata
   begin
      id 1
      name Spine_dum
      direction 0.000000 1.000000 0.000000
      length 5.893853
      axis 0.0 0.0 0.0 xyz
   end
   begin
      id 2
      name LeftUpLeg_dum
      direction 1.000000 0.000000 0.000000
      length 3.697939
      axis 0.0 0.0 0.0 xyz
   end
   begin
      id 3
      name RightUpLeg_dum
      direction -1.000000 0.000000 0.000000
      length 3.697939
      axis 0.0 0.0 0.0 xyz
   end
   begin
      id 4
      name Spine
      direction 0.000000 1.000000 0.000000
      length 0.000000
      axis 0.0 0.0 0.0 xyz
      dof rx ry rz
   end
   begin
      id 5
      name Spine_dum1
      direction 0.000000 1.000000 0.000000
      length 16.447146
      axis 0.0 0.0 0.0 xyz
   end
   begin
      id 6
      name Spine_dum2
      direction 0.000000 1.000000 0.000000
      length 10.900383
      axis 0.0 0.0 0.0 xyz
   end
   begin
      id 7
      name Spine_dum3
      direction 0.000000 1.000000 0.000000
      length 10.900383
      axis 0.0 0.0 0.0 xyz
   end
   begin
      id 8
      name Head
      direction 0.000000 1.000000 0.000000
      length 4.527550
      axis 0.0 0.0 0.0 xyz
      dof rx ry rz
   end
   begin
      id 9
      name LeftShoulder
      direction 1.000000 0.000000 0.000000
      length 8.219464
      axis 0.0 0.0 -90.0 xyz
      dof rx ry rz
   end
   begin
      id 10
      name LeftArm
      direction 1.000000 0.000000 0.000000
      length 11.094937
      axis 0.0 0.0 -90.0 xyz
      dof rx ry rz
   end
   begin
      id 11
      name LeftForeArm
      direction 1.000000 0.000000 0.000000
      length 9.103875
      axis 0.0 0.0 -90.0 xyz
      dof ry rz rx
   end
   begin
      id 12
      name LeftHand
      direction 0.000000 0.000000 0.000000
      length 0.000000
      axis 0.0 0.0 -90.0 xyz
      dof rx ry rz
   end
   begin
      id 13
      name LeftHand_dum1
      direction 0.000000 0.000000 0.000000
      length 0.000000
      axis 0.0 0.0 -90.0 xyz
   end
   begin
      id 14
      name LeftHand_dum2
      direction 1.000000 0.000000 0.000000
      length 3.937000
      axis 0.0 0.0 -90.0 xyz
   end
   begin
      id 15
      name LeftHandThumb1
      direction 0.000000 0.000000 1.000000
      length 3.937000
      axis 0.0 0.0 -90.0 xyz
      dof rx rz ry
   end
   begin
      id 16
      name RightShoulder
      direction -1.000000 0.000000 0.000000
      length 8.219464
      axis 0.0 0.0 90.0 xyz
      dof rx ry rz
   end
   begin
      id 17
      name RightArm
      direction -1.000000 0.000000 0.000000
      length 11.094937
      axis 0.0 0.0 90.0 xyz
      dof rx ry rz
   end
   begin
      id 18
      name RightForeArm
      direction -1.000000 0.000000 0.000000
      length 9.103875
      axis 0.0 0.0 90.0 xyz
      dof ry rz rx
   end
   begin
      id 19
      name RightHand
      direction 0.000000 0.000000 0.000000
      length 0.000000
      axis 0.0 0.0 90.0 xyz
      dof rx ry rz
   end
   begin
      id 20
      name RightHand_dum1
      direction 0.000000 0.000000 0.000000
      length 0.000000
      axis 0.0 0.0 90.0 xyz
   end
   begin
      id 21
      name RightHand_dum2
      direction -1.000000 0.000000 0.000000
      length 3.937000
      axis 0.0 0.0 90.0 xyz
   end
   begin
      id 22
      name RightHandThumb1
      direction 0.000000 0.000000 1.000000
      length 3.937000
      axis 0.0 0.0 90.0 xyz
      dof rx rz ry
   end
   begin
      id 23
      name LeftUpLeg
      direction 0.000000 -1.000000 0.000000
      length 16.181467
      axis 0.0 0.0 0.0 xyz
      dof rx ry rz
   end
   begin
      id 24
      name LeftLeg
      direction 0.000000 -1.000000 0.000000
      length 16.501392
      axis 0.0 0.0 0.0 xyz
      dof rx ry rz
   end
   begin
      id 25
      name LeftFoot
      direction 0.000000 -0.258819 0.965926
      length 6.408245
      axis 15.0 0.0 0.0 xyz
      dof rx ry rz
   end
   begin
      id 26
      name LeftToeBase
      direction 0.000000 0.000000 1.000000
      length 2.952750
      axis 0.0 0.0 0.0 xyz
      dof rx ry rz
   end
   begin
      id 27
      name RightUpLeg
      direction 0.000000 -1.000000 0.000000
      length 16.181467
      axis 0.0 0.0 0.0 xyz
      dof rx ry rz
   end
   begin
      id 28
      name RightLeg
      direction 0.000000 -1.000000 0.000000
      length 16.501392
      axis 0.0 0.0 0.0 xyz
      dof rx ry rz
   end
   begin
      id 29
      name RightFoot
      direction 0.000000 -0.258819 0.965926
      length 6.408245
      axis 15.0 0.0 0.0 xyz
      dof rx ry rz
   end
   begin
      id 30
      name RightToeBase
      direction 0.000000 0.000000 1.000000
      length 2.952750
      axis 0.0 0.0 0.0 xyz
      dof rx ry rz
   end
:hierarchy
   begin
      root Spine_dum LeftUpLeg_dum RightUpLeg_dum
      Spine_dum Spine
      LeftUpLeg_dum LeftUpLeg
      RightUpLeg_dum RightUpLeg
      Spine Spine_dum1 Spine_dum2 Spine_dum3
      Spine_dum1 Head
      Spine_dum2 LeftShoulder
      Spine_dum3 RightShoulder
      LeftShoulder LeftArm
      LeftArm LeftForeArm
      LeftForeArm LeftHand
      LeftHand LeftHand_dum1 LeftHand_dum2
      LeftHand_dum1 LeftHandThumb1
      RightShoulder RightArm
      RightArm RightForeArm
      RightForeArm RightHand
      RightHand RightHand_dum1 RightHand_dum2
      RightHand_dum1 RightHandThumb1
      LeftUpLeg LeftLeg
      LeftLeg LeftFoot
      LeftFoot LeftToeBase
      RightUpLeg RightLeg
      RightLeg RightFoot
      RightFoot RightToeBase
   end

# File created by Blade
# Date/Time:  Wed Apr 08 17:17:01 2015
# Frame Rate: 120.000 fps
#------------------------------------------------------
:FULLY-SPECIFIED
:DEGREES
670
root 4.341220 36.055372 4.670809 -4.356986 -31.347476 -6.380500
Spine 14.038882 2.963394 10.026237
Head 16.699266 14.877458 5.268266
LeftShoulder -5.780023 16.589250 15.670579
LeftArm 18.818202 26.176434 -75.008737
LeftForeArm 25.674762 -0.000000 23.797403
LeftHand -8.445951 -0.000000 -19.079319
LeftHandThumb1 -26.253704 0.000000 33.147579
RightShoulder -25.443105 -48.521419 19.745953
RightArm 61.613989 -18.664582 48.268544
RightForeArm 31.795526 0.000000 10.044123
RightHand -4.943503 -0.000000 14.673658
RightHandThumb1 -24.326973 -0.000000 -32.862282
LeftUpLeg 5.428588 10.937550 0.384848
LeftLeg 18.005727 -0.000000 -0.000000
LeftFoot -18.173942 -0.198996 -4.462130
LeftToeBase 10.302584 -0.000000 -0.000000
RightUpLeg -48.339819 4.483169 -3.017193
RightLeg 154.974095 -0.000000 -0.000000
RightFoot 37.323738 8.077586 14.313749
RightToeBase -7.463738 -0.000000 0.000000
671
root 4.331950 36.052595 4.663184 -4.245647 -31.617894 -6.479784
Spine 13.991711 2.967913 10.030548
Head 16.721295 14.864526 5.304917
LeftShoulder -5.800877 16.565716 15.670370
LeftArm 18.734892 26.168197 -75.032002
LeftForeArm 25.750975 -0.000000 23.754779
LeftHand -8.413600 -0.000000 -19.054279
LeftHandThumb1 -26.253704 0.000000 33.147579
RightShoulder -25.459123 -48.532110 19.771429
RightArm 61.597580 -18.649764 48.337130
RightForeArm 31.803848 -0.000000 10.037408
RightHand -4.961121 0.000000 14.628745
RightHandThumb1 -24.326973 -0.000000 -32.862282
LeftUpLeg 5.359706 10.990036 0.431011
LeftLeg 18.066873 -0.000000 -0.000000
LeftFoot -18.228779 0.106306 -4.355137
LeftToeBase 10.059007 -0.000000 -0.000000
RightUpLeg -48.393796 4.371270 -3.023359
RightLeg 154.952050 -0.000000 -0.000000
RightFoot 37.501958 8.024381 14.131172
RightToeBase -8.119338 -0.000000 0.000000
672
root 4.320462 36.049705 4.661041 -4.176702 -31.897514 -6.558682
Spine 13.970865 2.973330 10.014737
Head 16.729441 14.824342 5.333981
LeftShoulder -5.828381 16.580058 15.663272
LeftArm 18.708987 26.162421 -75.022015
LeftForeArm 25.810147 0.000000 23.684236
LeftHand -8.390247 -0.000000 -19.064318
LeftHandThumb1 -26.253704 0.000000 33.147579
RightShoulder -25.492557 -48.538399 19.825406
RightArm 61.549092 -18.610667 48.411629
RightForeArm 31.839728 -0.000000 10.052156
RightHand -4.855183 0.000000 14.737451
RightHandThumb1 -24.326973 -0.000000 -32.862282
LeftUpLeg 5.335695 11.081454 0.478303
LeftLeg 18.131069 -0.000000 -0.000000
LeftFoot -18.266975 0.362645 -4.234934
LeftToeBase 9.804963 -0.000000 -0.000000
RightUpLeg -48.394814 4.242319 -3.009046
RightLeg 154.957906 -0.000000 -0.000000
RightFoot 37.460995 7.874536 14.274389
RightToeBase -8.282951 -0.000000 0.000000
673
root 4.309882 36.045429 4.658110 -4.116648 -32.157168 -6.621990
Spine 13.958089 2.957905 9.984250
Head 16.710992 14.803093 5.351914
LeftShoulder -5.871290 16.569828 15.651556
LeftArm 18.688895 26.157064 -75.010913
LeftForeArm 25.848206 -0.000000 23.596395
LeftHand -8.442442 -0.000000 -19.146316
LeftHandThumb1 -26.253704 0.000000 33.147579
RightShoulder -25.522245 -48.541630 19.867459
RightArm 61.513161 -18.620928 48.447801
RightForeArm 31.979563 -0.000000 10.092028
RightHand -4.704527 -0.000000 14.749963
RightHandThumb1 -24.326973 -0.000000 -32.862282
LeftUpLeg 5.305585 11.181984 0.519870
LeftLeg 18.203705 -0.000000 -0.000000
LeftFoot -18.320738 0.562814 -4.172069
LeftToeBase 9.611610 -0.000000 -0.000000
RightUpLeg -48.395801 4.030239 -2.799104
RightLeg 154.965626 -0.000000 -0.000000
RightFoot 37.422457 7.753117 13.826484
RightToeBase -8.778142 -0.000000 0.000000
674
root 4.301165 36.040883 4.656213 -4.055610 -32.419048 -6.682602
Spine 13.949483 2.966135 9.958286
Head 16.647398 14.745559 5.366785
LeftShoulder -5.864082 16.610572 15.633412
LeftArm 18.682537 26.118644 -74.982943
LeftForeArm 25.901711 -0.000000 23.564955
LeftHand -8.470012 -0.000000 -19.165208
LeftHandThumb1 -26.253704 0.000000 33.147579
RightShoulder -25.635859 -48.532271 19.973309
RightArm 61.525881 -18.650360 48.375522
RightForeArm 32.043363 -0.000000 10.127808
RightHand -4.694513 -0.000000 14.724944
RightHandThumb1 -24.326973 -0.000000 -32.862282
LeftUpLeg 5.281684 11.275607 0.555140
LeftLeg 18.260794 -0.000000 -0.000000
LeftFoot -18.378802 0.768624 -4.130926
LeftToeBase 9.458948 -0.000000 -0.000000
RightUpLeg -48.386314 3.873239 -2.748977
RightLeg 154.963796 -0.000000 -0.000000
RightFoot 37.401839 7.811067 13.615510
RightToeBase -8.716568 -0.000000 0.000000
675
root 4.290240 36.036937 4.652726 -3.969551 -32.715793 -6.777643
Spine 13.938136 2.975354 9.965098
Head 16.605308 14.705726 5.370668
LeftShoulder -5.905113 16.625141 15.596547
LeftArm 18.689517 26.115744 -74.944936
LeftForeArm 25.909567 -0.000000 23.450241
LeftHand -8.436522 -0.000000 -19.131023
LeftHandThumb1 -26.253704 0.000000 33.147579
RightShoulder -25.684099 -48.554184 20.032927
RightArm 61.494808 -18.613926 48.406174
RightForeArm 32.035526 -0.000000 10.163872
RightHand -4.687605 0.000000 14.781499
RightHandThumb1 -24.326973 -0.000000 -32.862282
LeftUpLeg 5.249880 11.420066 0.631908
LeftLeg 18.331358 -0.000000 -0.000000
LeftFoot -18.463552 0.933216 -4.095405
LeftToeBase 9.320106 -0.000000 -0.000000
RightUpLeg -48.351595 3.821894 -2.770041
RightLeg 154.976025 -0.000000 -0.000000
RightFoot 37.284262 7.849572 13.975198
RightToeBase -8.177448 -0.000000 0.000000
676
root 4.280895 36.033020 4.648693 -3.894556 -32.995929 -6.856578
Spine 13.932551 2.973222 9.957517
Head 16.536378 14.641630 5.362167
LeftShoulder -5.896663 16.639036 15.583607
LeftArm 18.675370 26.063582 -74.948426
LeftForeArm 25.858522 -0.000000 23.346298
LeftHand -8.458772 -0.000000 -19.106849
LeftHandThumb1 -26.253704 0.000000 33.147579
RightShoulder -25.728188 -48.528154 20.082945
RightArm 61.461233 -18.635080 48.368381
RightForeArm 32.062982 -0.000000 10.188243
RightHand -4.702708 -0.000000 14.806583
RightHandThumb1 -24.326973 -0.000000 -32.862282
LeftUpLeg 5.215097 11.521367 0.685415
LeftLeg 18.405171 -0.000000 -0.000000
LeftFoot -18.547093 1.106942 -4.110960
LeftToeBase 9.285517 -0.000000 -0.000000
RightUpLeg -48.288854 3.809642 -2.869929
RightLeg 154.960116 -0.000000 -0.000000
RightFoot 37.255392 7.867206 14.181540
RightToeBase -8.100578 -0.000000 0.000000
677
root 4.273068 36.027644 4.646613 -3.830484 -33.276774 -6.916568
Spine 13.918704 2.952635 9.932802
Head 16.490151 14.593494 5.360944
LeftShoulder -5.897807 16.662151 15.572713
LeftArm 18.667350 26.059945 -74.937041
LeftForeArm 25.802235 -0.000000 23.248902
LeftHand -8.542589 -0.000000 -19.046277
LeftHandThumb1 -26.253704 0.000000 33.147579
RightShoulder -25.747693 -48.543036 20.116214
RightArm 61.441711 -18.626987 48.356302
RightForeArm 32.103648 -0.000000 10.195001
RightHand -4.683635 -0.000000 14.666856
RightHandThumb1 -24.326973 -0.000000 -32.862282
LeftUpLeg 5.194820 11.620088 0.716686
LeftLeg 18.449484 -0.000000 -0.000000
LeftFoot -18.643466 1.299788 -4.118176
LeftToeBase 9.246908 -0.000000 -0.000000
RightUpLeg -48.236098 3.748234 -2.968063
RightLeg 154.976916 -0.000000 -0.000000
RightFoot 37.174200 7.888949 14.284853
RightToeBase -7.549540 -0.000000 0.000000
678
root 4.267509 36.021476 4.644948 -3.762480 -33.553203 -6.969209
Spine 13.901362 2.934996 9.906745
Head 16.430157 14.522165 5.360927
LeftShoulder -5.917965 16.667645 15.567055
LeftArm 18.674326 26.006071 -74.969598
LeftForeArm 25.800949 -0.000000 23.092163
LeftHand -8.517375 0.000000 -19.043176
LeftHandThumb1 -26.253704 0.000000 33.147579
RightShoulder -25.768866 -48.543992 20.124304
RightArm 61.430961 -18.646825 48.348965
RightForeArm 32.176249 -0.000000 10.151543
RightHand -4.633876 0.000000 14.701505
RightHandThumb1 -24.326973 -0.000000 -32.862282
LeftUpLeg 5.167750 11.729232 0.738021
LeftLeg 18.491680 -0.000000 -0.000000
LeftFoot -18.730652 1.486612 -4.106644
LeftToeBase 9.170759 -0.000000 -0.000000
RightUpLeg -48.172188 3.648190 -3.037567
RightLeg 154.977089 -0.000000 -0.000000
RightFoot 37.138076 7.908653 14.170462
RightToeBase -7.250348 -0.000000 0.000000
679
root 4.260699 36.015111 4.643271 -3.691380 -33.833054 -7.025672
Spine 13.876949 2.915555 9.883908
Head 16.388436 14.439754 5.360384
LeftShoulder -5.921735 16.651254 15.571805
LeftArm 18.628292 25.955867 -75.021712
LeftForeArm 25.831247 -0.000000 22.970545
LeftHand -8.540547 -0.000000 -19.005036
LeftHandThumb1 -26.253704 0.000000 33.147579
RightShoulder -25.827981 -48.567298 20.161530
RightArm 61.419677 -18.620317 48.414706
RightForeArm 32.155429 -0.000000 10.144594
RightHand -4.604749 -0.000000 14.623846
RightHandThumb1 -24.326973 -0.000000 -32.862282
LeftUpLeg 5.152936 11.832350 0.763009
LeftLeg 18.513101 -0.000000 -0.000000
LeftFoot -18.811115 1.666418 -4.144267
LeftToeBase 9.064611 -0.000000 -0.000000
RightUpLeg -48.092934 3.575351 -3.113711
RightLeg 154.981075 -0.000000 -0.000000
RightFoot 37.134971 7.853844 14.132229
RightToeBase -7.641748 -0.000000 0.000000
680
root 4.254745 36.008777 4.639799 -3.615452 -34.143159 -7.092438
Spine 13.866012 2.912949 9.866491
Head 16.344646 14.362351 5.370366
LeftShoulder -5.916127 16.645188 15.586609
LeftArm 18.579081 25.870362 -75.093746
LeftForeArm 25.874945 -0.000000 22.885480
LeftHand -8.584582 -0.000000 -19.038587
LeftHandThumb1 -26.253704 0.000000 33.147579
RightShoulder -25.791069 -48.559426 20.114908
RightArm 61.360725 -18.653010 48.427343
RightForeArm 32.249905 0.000000 10.119343
RightHand -4.544795 -0.000000 14.695653
RightHandThumb1 -24.326973 -0.000000 -32.862282
LeftUpLeg 5.149795 11.940475 0.789802
LeftLeg 18.514081 -0.000000 -0.000000
LeftFoot -18.902774 1.891170 -4.131322
LeftToeBase 8.966544 -0.000000 -0.000000
RightUpLeg -48.007679 3.535175 -3.195817
RightLeg 154.976295 -0.000000 -0.000000
RightFoot 37.063546 7.863583 14.139506
RightToeBase -6.959879 -0.000000 0.000000
681
root 4.248754 36.001742 4.639221 -3.577218 -34.461347 -7.124205
Spine 13.880067 2.897432 9.807558
Head 16.288856 14.312359 5.397263
LeftShoulder -5.953542 16.625769 15.589791
LeftArm 18.535982 25.820863 -75.136912
LeftForeArm 25.886007 -0.000000 22.814396
LeftHand -8.593379 0.000000 -19.085096
LeftHandThumb1 -26.253704 0.000000 33.147579
RightShoulder -25.759275 -48.579288 20.100577
RightArm 61.294078 -18.601544 48.523530
RightForeArm 32.142415 -0.000000 10.137874
RightHand -4.583586 -0.000000 14.769428
RightHandThumb1 -24.326973 -0.000000 -32.862282
LeftUpLeg 5.184623 12.102340 0.802646
LeftLeg 18.492635 -0.000000 -0.000000
LeftFoot -18.979460 2.075013 -4.125978
LeftToeBase 8.827236 -0.000000 -0.000000
RightUpLeg -47.915252 3.527334 -3.350171
RightLeg 154.970474 -0.000000 -0.000000
RightFoot 37.083244 7.892315 14.167910
RightToeBase -7.267812 -0.000000 0.000000
